<svg width="87" height="36" viewBox="0 0 87 36" fill="none" xmlns="http://www.w3.org/2000/svg">
<path d="M16.0436 4.85936C15.0233 6.05702 13.3952 6.99881 11.7671 6.86376C11.5645 5.24673 12.3604 3.5302 13.2939 2.46758C14.3141 1.23793 16.0942 0.367221 17.5342 0.296143C17.7042 1.98069 17.0421 3.62971 16.0436 4.85936ZM17.5161 7.18361C15.1608 7.04856 13.1383 8.51632 12.0239 8.51632C10.8843 8.51632 9.17295 7.25114 7.30606 7.28667C4.88199 7.32221 2.62797 8.68336 1.39061 10.8583C-1.15647 15.2012 0.728512 21.6373 3.18514 25.1735C4.38994 26.9256 5.83353 28.8447 7.73298 28.7771C9.52752 28.7096 10.2403 27.615 12.4111 27.615C14.6 27.615 15.2259 28.7771 17.129 28.7452C19.0935 28.7096 20.3309 26.9931 21.5357 25.241C22.9105 23.2508 23.4713 21.3175 23.5039 21.2144C23.4677 21.1789 19.705 19.7502 19.6688 15.4393C19.6362 11.8321 22.6356 10.1156 22.7731 10.0161C21.0798 7.52123 18.4314 7.25113 17.5161 7.18361ZM31.1379 2.30055V28.5604H35.2443V19.5832H40.9246C46.1129 19.5832 49.7598 16.0435 49.7598 10.9259C49.7598 5.8047 46.1816 2.30055 41.0621 2.30055H31.1343H31.1379ZM35.2443 5.73717H39.9767C43.5368 5.73717 45.5701 7.62074 45.5701 10.9401C45.5701 14.2594 43.5368 16.1643 39.9586 16.1643H35.2407V5.73362L35.2443 5.73717ZM57.2563 28.7594C59.836 28.7594 62.2275 27.4657 63.3129 25.408H63.3961V28.5604H67.195V15.4891C67.195 11.7006 64.1414 9.25554 59.4452 9.25554C55.0855 9.25554 51.8655 11.7326 51.7461 15.1337H55.4437C55.7476 13.5167 57.2563 12.4576 59.3258 12.4576C61.8367 12.4576 63.2441 13.6197 63.2441 15.7592V17.2056L58.121 17.5113C53.3561 17.7956 50.7765 19.7324 50.7765 23.1016C50.7765 26.5026 53.4393 28.7594 57.2563 28.7594ZM58.3598 25.6462C56.1709 25.6462 54.778 24.6013 54.778 23.002C54.778 21.3495 56.1203 20.3899 58.6818 20.2371L63.2405 19.9528V21.4348C63.2405 23.8941 61.1457 25.6462 58.3598 25.6462ZM72.2675 35.7037C76.269 35.7037 78.1503 34.1862 79.7929 29.5874L87 9.50787H82.8284L77.9948 25.0207H77.9116L73.0779 9.50787H68.7869L75.7371 28.6279L75.3645 29.79C74.7386 31.7589 73.7219 32.5158 71.9057 32.5158C71.5032 32.5111 71.1012 32.4886 70.7009 32.4483V35.6006C70.9397 35.6682 71.9563 35.7001 72.2638 35.7001L72.2675 35.7037Z" fill="#EEEEEE"/>
</svg>
