<svg width="24" height="24" viewBox="0 0 24 24" fill="none" xmlns="http://www.w3.org/2000/svg">
<path id="Arrow 1" d="M0.945596 20.8831C0.359809 21.4689 0.359809 22.4186 0.945596 23.0044C1.53138 23.5902 2.48113 23.5902 3.06692 23.0044L0.945596 20.8831ZM23.4063 2.04373C23.4063 1.2153 22.7347 0.543725 21.9063 0.543725L8.40625 0.543725C7.57783 0.543725 6.90625 1.2153 6.90625 2.04373C6.90625 2.87215 7.57783 3.54373 8.40626 3.54373L20.4063 3.54373L20.4063 15.5437C20.4063 16.3722 21.0778 17.0437 21.9063 17.0437C22.7347 17.0437 23.4063 16.3722 23.4063 15.5437L23.4063 2.04373ZM3.06692 23.0044L22.9669 3.10439L20.8456 0.983065L0.945596 20.8831L3.06692 23.0044Z" fill="#F0F0F0"/>
</svg>
