<svg width="14" height="15" viewBox="0 0 14 15" fill="none" xmlns="http://www.w3.org/2000/svg">
<path id="Arrow 1" d="M0.328563 12.383C-0.0743769 12.7607 -0.0948366 13.3935 0.282865 13.7964C0.660566 14.1994 1.2934 14.2198 1.69634 13.8421L0.328563 12.383ZM13.987 1.91989C14.0048 1.36789 13.5718 0.905942 13.0198 0.888096L4.0245 0.597276C3.4725 0.57943 3.01056 1.01244 2.99271 1.56444C2.97486 2.11644 3.40788 2.57839 3.95987 2.59623L11.9557 2.85474L11.6972 10.8506C11.6793 11.4026 12.1124 11.8645 12.6644 11.8824C13.2164 11.9002 13.6783 11.4672 13.6961 10.9152L13.987 1.91989ZM1.69634 13.8421L13.6714 2.61716L12.3036 1.15799L0.328563 12.383L1.69634 13.8421Z" fill="#4F7280"/>
</svg>
