<svg width="61" height="42" viewBox="0 0 61 42" fill="none" xmlns="http://www.w3.org/2000/svg">
<path d="M16.958 15.2525C16.958 16.1187 17.0382 16.8181 17.1786 17.3303C17.3391 17.8453 17.5397 18.4072 17.8205 19.0159C17.9208 19.2002 17.961 19.3875 17.961 19.5514C17.961 19.7855 17.8406 20.0196 17.5798 20.2538L16.3186 21.2341C16.1662 21.3624 15.9848 21.4357 15.7971 21.4448C15.5965 21.4448 15.3959 21.3278 15.1978 21.1171C14.9284 20.7789 14.6874 20.4114 14.4781 20.0196C14.254 19.5708 14.0465 19.111 13.8563 18.6413C12.2967 20.7893 10.3334 21.8633 7.97139 21.8633C6.29142 21.8633 4.94995 21.3043 3.96955 20.1835C2.98915 19.0598 2.49017 17.5673 2.49017 15.6973C2.49017 13.7132 3.08944 12.0978 4.31056 10.8863C5.53167 9.67182 7.15147 9.06313 9.21257 9.06313C9.89458 9.06313 10.5942 9.13336 11.3338 9.25042C12.076 9.36747 12.8383 9.55477 13.6357 9.76547V8.05936C13.6357 6.28303 13.3172 5.04515 12.6954 4.32232C12.056 3.59657 10.9753 3.24833 9.43573 3.24833C8.73365 3.24833 8.01151 3.33905 7.27182 3.54975C6.53213 3.76045 5.81 4.01798 5.11042 4.34574C4.88233 4.46493 4.64781 4.5666 4.40835 4.65008C4.30522 4.68888 4.19814 4.71151 4.0899 4.71739C3.80907 4.71739 3.66866 4.48328 3.66866 3.99457V2.85033C3.66866 2.47575 3.70878 2.19482 3.80907 2.03094C3.96054 1.81848 4.15303 1.65098 4.37074 1.54222C5.17264 1.07754 6.01837 0.723962 6.89069 0.488713C7.91126 0.183778 8.9615 0.0352328 10.0149 0.0468235C12.397 0.0468235 14.1371 0.67893 15.258 1.94022C16.3587 3.19858 16.9179 5.11538 16.9179 7.68478V15.2525H16.958ZM8.83394 18.8052C9.4934 18.8052 10.1729 18.6647 10.895 18.3838C11.6291 18.0877 12.2842 17.5733 12.7957 16.8913C13.119 16.4599 13.3524 15.9471 13.4777 15.393C13.5955 14.834 13.6783 14.1551 13.6783 13.362V12.3817C13.0708 12.2089 12.4555 12.076 11.8353 11.9837C11.2116 11.8912 10.5835 11.8443 9.95476 11.8432C8.61329 11.8432 7.63289 12.1476 6.97093 12.7797C6.31148 13.4089 5.99304 14.2956 5.99304 15.4632C5.99304 16.5606 6.23124 17.38 6.73273 17.939C7.21164 18.5242 7.91121 18.8052 8.83394 18.8052ZM24.9065 21.3278C24.5454 21.3278 24.3047 21.2575 24.1443 21.0936C23.9838 20.9532 23.8434 20.6254 23.723 20.1835L19.0216 2.12458C18.9301 1.82178 18.8695 1.50747 18.8411 1.18813C18.8411 0.813545 19.0015 0.602844 19.32 0.602844H21.2833C21.6619 0.602844 21.9227 0.676004 22.0606 0.836957C22.2236 0.977425 22.3439 1.30518 22.4618 1.75L25.8267 17.2132L28.9485 1.75C29.0488 1.28177 29.1691 0.977425 29.3271 0.836957C29.5677 0.664774 29.8478 0.583047 30.1295 0.602844H31.7292C32.1103 0.602844 32.3711 0.676004 32.5316 0.836957C32.6895 0.977425 32.8325 1.30518 32.9102 1.75L36.0721 17.4005L39.5348 1.75C39.6552 1.28177 39.7956 0.977425 39.936 0.836957C40.1683 0.664854 40.4412 0.582908 40.7158 0.602844H42.5788C42.8973 0.602844 43.0803 0.793061 43.0803 1.18813C43.0803 1.30518 43.0577 1.42224 43.0377 1.56271C43.0063 1.76239 42.9593 1.95831 42.8973 2.14799L38.0755 20.204C37.9551 20.6722 37.8147 20.9737 37.6542 21.1141C37.4283 21.2833 37.1625 21.3652 36.8945 21.3482H35.1719C34.7933 21.3482 34.5325 21.278 34.3695 21.1141C34.2116 20.9502 34.0711 20.6459 33.9934 20.1777L30.8892 5.11246L27.8051 20.1543C27.7048 20.6225 27.5869 20.9268 27.429 21.0907C27.266 21.2546 26.9852 21.3248 26.6266 21.3248L24.9065 21.3278ZM50.6226 21.9569C49.582 21.9569 48.5415 21.8165 47.541 21.5385C46.5405 21.2575 45.7607 20.9532 45.2392 20.602C44.9182 20.3942 44.7001 20.1601 44.6199 19.9494C44.5417 19.7428 44.5007 19.5197 44.4995 19.2939V18.1028C44.4995 17.6141 44.66 17.38 44.9584 17.38C45.0787 17.38 45.1991 17.4034 45.3194 17.4502C45.4398 17.4971 45.6203 17.5907 45.8209 17.6844C46.5004 18.0355 47.2401 18.3135 48.0224 18.5008C48.8223 18.6881 49.6021 18.7818 50.4045 18.7818C51.6632 18.7818 52.6461 18.5242 53.3256 18.0092C53.6514 17.7795 53.9192 17.4533 54.102 17.0637C54.2847 16.6741 54.3759 16.235 54.3662 15.791C54.3735 15.4902 54.3297 15.1908 54.2371 14.91C54.1446 14.6292 54.0052 14.3726 53.8271 14.1551C53.466 13.7132 52.784 13.3152 51.8036 12.9406L48.9025 11.8871C47.4407 11.3516 46.36 10.5585 45.7006 9.50794C45.0551 8.53837 44.7025 7.34693 44.6976 6.11915C44.6976 5.1388 44.8806 4.2755 45.2392 3.52634C45.6003 2.7801 46.0792 2.12458 46.681 1.61246C47.2827 1.074 47.9597 0.676004 48.7621 0.397994C49.5645 0.117057 50.4045 0 51.2846 0C51.7234 0 52.1847 0.0234116 52.626 0.0936457C53.0849 0.16388 53.5036 0.257525 53.9249 0.35117C54.3261 0.468227 54.7072 0.585285 55.0658 0.722827C55.4268 0.863295 55.7077 1.00376 55.9083 1.14423C56.1446 1.28306 56.3504 1.48329 56.51 1.72952C56.6393 1.95677 56.7018 2.22688 56.6881 2.49916V3.59657C56.6881 4.08821 56.5276 4.34574 56.2267 4.34574C55.9603 4.31009 55.7023 4.21469 55.467 4.0648C54.2578 3.44139 52.9473 3.1309 51.6256 3.15468C50.4847 3.15468 49.582 3.36246 48.9627 3.80727C48.3409 4.25209 48.0224 4.92809 48.0224 5.88503C48.0224 6.54055 48.223 7.10242 48.6242 7.54431C49.0229 7.98913 49.7626 8.43395 50.8232 8.83194L53.6666 9.8796C55.1059 10.4181 56.149 11.1672 56.7683 12.1242C57.3876 13.0811 57.6885 14.1785 57.6885 15.393C57.6885 16.3967 57.508 17.3098 57.1695 18.1028C56.8136 18.9025 56.3152 19.604 55.7077 20.1601C55.0858 20.7454 54.3461 21.1639 53.4861 21.4682C52.5834 21.7931 51.6456 21.9569 50.6226 21.9569ZM54.4063 33.3115C47.8218 38.9887 38.2535 42 30.0292 42C18.5001 42 8.11432 37.0251 0.266088 28.755C-0.353245 28.1024 0.20591 27.2128 0.948106 27.7278C9.43322 33.4724 19.9017 36.9548 30.7287 36.9548C38.0354 36.9548 46.0591 35.1785 53.446 31.5351C54.5467 30.9498 55.487 32.375 54.4063 33.3115ZM57.1494 29.6651C56.3069 28.4068 51.583 29.0594 49.4416 29.3637C48.8022 29.4574 48.7019 28.8018 49.2837 28.3102C53.0448 25.2287 59.2306 26.1154 59.9502 27.1426C60.6699 28.1961 59.7496 35.4126 56.2267 38.8687C55.6876 39.4072 55.1661 39.1263 55.4068 38.4268C56.2092 36.115 57.9894 30.9059 57.1494 29.6651Z" fill="#EEEEEE"/>
</svg>
