<svg width="74" height="36" viewBox="0 0 74 36" fill="none" xmlns="http://www.w3.org/2000/svg">
<path d="M0.355591 32.7239H14.5652V35.0976H0.355591V32.7239ZM0.355591 28.1683H14.5652V30.5492H0.355591V28.1683ZM4.40505 23.6234H10.5036V26.0078H4.40505V23.6234ZM4.40505 19.082H10.5036V21.4629H4.40505V19.082ZM4.40505 14.5336H10.5036V16.918H4.40505V14.5336ZM4.40505 9.98155H10.5036V12.3659H4.40505V9.98155ZM0.355591 5.44018H14.5652V7.82102H0.355591V5.44018ZM0.355591 0.895267H14.5652V3.27611H0.355591V0.895267ZM16.59 30.5492H38.4419C38.8072 29.8171 39.0873 29.0105 39.2548 28.1683H16.593V30.5492H16.59ZM36.7399 19.082H20.6547V21.4629H38.4449C37.9942 20.566 37.4202 19.7616 36.746 19.082H36.7399ZM20.6516 14.5336V16.918H36.7429C37.4219 16.2499 37.9912 15.4468 38.4449 14.5336H20.6516ZM38.4419 5.44018H16.59V7.82102H39.2517C39.0679 6.99108 38.7959 6.19125 38.4419 5.44018ZM31.7252 0.895267H16.59V3.27611H36.9439C35.5234 1.74365 33.6596 0.893382 31.7252 0.895267ZM20.6516 9.98155H26.741V12.3659H20.6516V9.98155ZM32.8335 12.3659H39.203C39.3827 11.6055 39.4771 10.8024 39.4771 9.98155H32.8335V12.3659ZM20.6516 23.6234H26.738V26.0078H20.6486L20.6516 23.6234ZM32.8335 23.6234V26.0078H39.4771C39.4771 25.1905 39.3827 24.3839 39.203 23.6234H32.8335ZM16.59 35.0799L31.7222 35.1047C33.753 35.1047 35.5829 34.1915 36.9499 32.7239H16.59V35.0799ZM40.9537 32.7239H51.0987V35.0976H40.9537V32.7239ZM40.9537 28.1683H51.0987V30.5492H40.9537V28.1683ZM45.0062 23.6234H51.0957V26.0078H45.0062V23.6234ZM45.0062 19.082H51.0957V21.4629H45.0062V19.082ZM53.9242 5.44018H40.9537V7.82102H54.6245L53.9242 5.44018ZM52.5784 0.895267H40.9537V3.27255H53.2787L52.5784 0.895267ZM63.2745 32.7239H73.4286V35.0976H63.2745V32.7239ZM63.2745 28.1683H73.4286V30.5492H63.2745V28.1683ZM63.2745 23.6234H69.3639V26.0078H63.2745V23.6234ZM63.2745 19.082H69.3639V21.4629H63.2745V19.082ZM63.2745 16.918H69.3639V14.5336H57.7605L57.1881 16.4596L56.6157 14.5336H45.0062V16.918H51.0957V14.729L51.7442 16.918H62.629L63.2745 14.729V16.918ZM69.367 9.98155H59.1063L58.406 12.3659H69.367V9.98155ZM61.807 0.895267L61.1036 3.27255H73.4286V0.895267H61.807ZM57.1881 35.0799L57.8884 32.7239H56.4848L57.1881 35.0799ZM55.8424 30.5492H58.5339L59.2585 28.1683H55.1269L55.8424 30.5492ZM54.4753 26.0078H59.901L60.6165 23.6234H53.7567L54.4753 26.0078ZM53.1113 21.4629H61.268L61.9653 19.082H52.411L53.1113 21.4629ZM45.0062 12.3659H55.9733L55.27 9.98155H45.0062V12.3659ZM59.7579 7.82102H73.4286V5.44018H60.4521L59.7579 7.82102Z" fill="#EEEEEE"/>
</svg>
