<svg width="125" height="19" viewBox="0 0 125 19" fill="none" xmlns="http://www.w3.org/2000/svg">
<g id="Logo">
<path d="M3.74257 0.5V17.9777H0V0.5H3.74257Z" fill="#1E2A49"/>
<path d="M10.4347 10.3995V17.9777H6.75261V4.86943H10.2618V7.18215H10.4174C10.7113 6.41978 11.2039 5.8167 11.8954 5.37293C12.5869 4.92348 13.4253 4.69875 14.4106 4.69875C15.3326 4.69875 16.1364 4.89787 16.8221 5.29613C17.5078 5.69438 18.0408 6.26332 18.4211 7.00294C18.8014 7.73686 18.9916 8.61302 18.9916 9.63142V17.9777H15.3095V10.28C15.3153 9.47781 15.1078 8.85198 14.6872 8.40252C14.2666 7.94737 13.6875 7.7198 12.9499 7.7198C12.4543 7.7198 12.0164 7.82505 11.6361 8.03555C11.2616 8.24606 10.9677 8.55329 10.7545 8.95723C10.547 9.35548 10.4404 9.83624 10.4347 10.3995Z" fill="#1E2A49"/>
<path d="M25.5756 10.3995V17.9777H21.8936V4.86943H25.4028V7.18215H25.5584C25.8522 6.41978 26.3449 5.8167 27.0364 5.37293C27.7278 4.92348 28.5662 4.69875 29.5516 4.69875C30.4735 4.69875 31.2774 4.89787 31.9631 5.29613C32.6488 5.69438 33.1818 6.26332 33.5621 7.00294C33.9424 7.73686 34.1326 8.61302 34.1326 9.63142V17.9777H30.4505V10.28C30.4563 9.47781 30.2488 8.85198 29.8282 8.40252C29.4075 7.94737 28.8284 7.7198 28.0909 7.7198C27.5953 7.7198 27.1574 7.82505 26.7771 8.03555C26.4025 8.24606 26.1087 8.55329 25.8955 8.95723C25.688 9.35548 25.5814 9.83624 25.5756 10.3995Z" fill="#1E2A49"/>
<path d="M43.033 18.2337C41.6904 18.2337 40.5293 17.9521 39.5498 17.3889C38.576 16.8199 37.824 16.0291 37.2939 15.0164C36.7637 13.998 36.4987 12.8175 36.4987 11.4748C36.4987 10.1207 36.7637 8.93732 37.2939 7.92461C37.824 6.90622 38.576 6.1154 39.5498 5.55215C40.5293 4.98321 41.6904 4.69875 43.033 4.69875C44.3756 4.69875 45.5338 4.98321 46.5077 5.55215C47.4872 6.1154 48.2421 6.90622 48.7722 7.92461C49.3023 8.93732 49.5674 10.1207 49.5674 11.4748C49.5674 12.8175 49.3023 13.998 48.7722 15.0164C48.2421 16.0291 47.4872 16.8199 46.5077 17.3889C45.5338 17.9521 44.3756 18.2337 43.033 18.2337ZM43.0503 15.4175C43.6611 15.4175 44.1711 15.2468 44.5802 14.9055C44.9893 14.5584 45.2976 14.0862 45.505 13.4888C45.7182 12.8914 45.8248 12.2115 45.8248 11.4492C45.8248 10.6868 45.7182 10.0069 45.505 9.40953C45.2976 8.81215 44.9893 8.33994 44.5802 7.99288C44.1711 7.64583 43.6611 7.47231 43.0503 7.47231C42.4338 7.47231 41.9152 7.64583 41.4945 7.99288C41.0796 8.33994 40.7656 8.81215 40.5524 9.40953C40.345 10.0069 40.2412 10.6868 40.2412 11.4492C40.2412 12.2115 40.345 12.8914 40.5524 13.4888C40.7656 14.0862 41.0796 14.5584 41.4945 14.9055C41.9152 15.2468 42.4338 15.4175 43.0503 15.4175Z" fill="#1E2A49"/>
<path d="M63.911 4.86943L59.2696 17.9777H55.1208L50.4793 4.86943H54.3688L57.126 14.2483H57.2643L60.0129 4.86943H63.911Z" fill="#1E2A49"/>
<path d="M69.2245 18.2252C68.3775 18.2252 67.6226 18.0801 66.96 17.79C66.2973 17.4941 65.7729 17.0589 65.3869 16.4843C65.0066 15.9039 64.8164 15.1814 64.8164 14.3166C64.8164 13.5884 64.9518 12.9768 65.2227 12.4818C65.4935 11.9868 65.8623 11.5886 66.329 11.287C66.7957 10.9855 67.3259 10.7579 67.9194 10.6043C68.5186 10.4507 69.1467 10.3426 69.8036 10.28C70.5758 10.2004 71.1981 10.1264 71.6706 10.0581C72.1431 9.98416 72.4859 9.87606 72.6992 9.73383C72.9123 9.59159 73.019 9.38109 73.019 9.10231V9.0511C73.019 8.51062 72.8461 8.09245 72.5004 7.7966C72.1604 7.50075 71.6763 7.35283 71.0483 7.35283C70.3856 7.35283 69.8584 7.49791 69.4665 7.78807C69.0747 8.07254 68.8154 8.43096 68.6886 8.86336L65.2832 8.59027C65.456 7.79376 65.796 7.10534 66.3031 6.52503C66.8101 5.93903 67.4642 5.48957 68.2651 5.17665C69.0718 4.85805 70.0053 4.69875 71.0656 4.69875C71.8031 4.69875 72.509 4.78409 73.1832 4.95477C73.8631 5.12545 74.4653 5.39 74.9896 5.74843C75.5198 6.10686 75.9375 6.5677 76.2429 7.13095C76.5483 7.6885 76.701 8.357 76.701 9.13645V17.9777H73.2091V16.16H73.1054C72.8922 16.5696 72.6069 16.9309 72.2497 17.2438C71.8924 17.551 71.4631 17.7928 70.9618 17.9692C70.4605 18.1399 69.8814 18.2252 69.2245 18.2252ZM70.279 15.7162C70.8207 15.7162 71.2989 15.6109 71.7138 15.4004C72.1287 15.1842 72.4543 14.8941 72.6905 14.53C72.9268 14.1658 73.0449 13.7534 73.0449 13.2925V11.9015C72.9296 11.9754 72.7712 12.0437 72.5695 12.1063C72.3736 12.1632 72.1517 12.2172 71.904 12.2684C71.6562 12.314 71.4084 12.3566 71.1606 12.3964C70.9129 12.4306 70.6881 12.4619 70.4864 12.4903C70.0543 12.5529 69.6768 12.6525 69.3542 12.789C69.0315 12.9256 68.7808 13.1105 68.6022 13.3437C68.4236 13.5713 68.3343 13.8558 68.3343 14.1971C68.3343 14.6921 68.5158 15.0704 68.8788 15.3322C69.2476 15.5882 69.7143 15.7162 70.279 15.7162Z" fill="#1E2A49"/>
<path d="M86.6192 4.86943V7.60032H78.6242V4.86943H86.6192ZM80.4393 1.7289H84.1213V13.9496C84.1213 14.2853 84.1732 14.547 84.2769 14.7348C84.3806 14.9168 84.5247 15.0448 84.7091 15.1188C84.8992 15.1928 85.1182 15.2297 85.366 15.2297C85.5388 15.2297 85.7117 15.2155 85.8846 15.1871C86.0574 15.1529 86.19 15.1273 86.2822 15.1103L86.8613 17.8156C86.6769 17.8725 86.4176 17.9379 86.0834 18.0118C85.7492 18.0915 85.3429 18.1399 84.8646 18.1569C83.9773 18.1911 83.1994 18.0744 82.5309 17.807C81.8683 17.5396 81.3526 17.1243 80.9838 16.5611C80.615 15.9978 80.4335 15.2866 80.4393 14.4275V1.7289Z" fill="#1E2A49"/>
<path d="M94.9255 18.2337C93.5599 18.2337 92.3844 17.9606 91.399 17.4145C90.4194 16.8626 89.6646 16.0832 89.1345 15.0761C88.6043 14.0634 88.3393 12.8658 88.3393 11.4833C88.3393 10.1349 88.6043 8.95154 89.1345 7.93315C89.6646 6.91475 90.4108 6.12109 91.3731 5.55215C92.3411 4.98321 93.4763 4.69875 94.7786 4.69875C95.6544 4.69875 96.4698 4.83814 97.2246 5.11691C97.9852 5.39 98.6479 5.80248 99.2126 6.35435C99.7831 6.90622 100.227 7.60032 100.544 8.43665C100.861 9.2673 101.019 10.2402 101.019 11.3553V12.3538H89.8086V10.1008H97.5531C97.5531 9.57737 97.4378 9.11369 97.2073 8.70974C96.9769 8.3058 96.6571 7.99004 96.2479 7.76247C95.8446 7.5292 95.3749 7.41257 94.8391 7.41257C94.2801 7.41257 93.7846 7.54058 93.3524 7.7966C92.926 8.04693 92.5918 8.38545 92.3498 8.81215C92.1078 9.23316 91.9839 9.70254 91.9781 10.2203V12.3623C91.9781 13.0109 92.0991 13.5713 92.3411 14.0435C92.5889 14.5157 92.9375 14.8799 93.387 15.1359C93.8364 15.3919 94.3694 15.5199 94.986 15.5199C95.3951 15.5199 95.7697 15.463 96.1096 15.3492C96.4496 15.2354 96.7406 15.0648 96.9826 14.8372C97.2246 14.6096 97.409 14.3308 97.5358 14.0008L100.941 14.2227C100.768 15.0306 100.414 15.7361 99.8781 16.3392C99.348 16.9366 98.6623 17.4031 97.821 17.7388C96.9855 18.0687 96.0203 18.2337 94.9255 18.2337Z" fill="#1E2A49"/>
<path d="M106.953 0.800409L110.522 6.75717H110.661L114.248 0.800409H118.474L113.072 9.53926L118.595 18.2781H114.291L110.661 12.3128H110.522L106.892 18.2781H102.605L108.145 9.53926L102.709 0.800409H106.953Z" fill="#1E2A49"/>
<path d="M122.926 18.5C122.355 18.5 121.865 18.3009 121.456 17.9026C121.053 17.4987 120.851 17.0151 120.851 16.4518C120.851 15.8943 121.053 15.4164 121.456 15.0181C121.865 14.6199 122.355 14.4207 122.926 14.4207C123.479 14.4207 123.963 14.6199 124.378 15.0181C124.793 15.4164 125 15.8943 125 16.4518C125 16.8273 124.902 17.1715 124.706 17.4844C124.516 17.7917 124.265 18.0392 123.954 18.2269C123.643 18.409 123.3 18.5 122.926 18.5Z" fill="#1E2A49"/>
</g>
</svg>
