<svg width="121" height="22" viewBox="0 0 121 22" fill="none" xmlns="http://www.w3.org/2000/svg">
<path d="M99.3786 0.933086L99.6093 16.7006H99.4939L95.5824 0.938941H89.1484V20.7917H93.4009L93.1702 4.49159H93.2856L97.478 20.7917H103.631V0.938941L99.3786 0.933086ZM18.3893 0.933086L15.1748 20.9965H19.8286L22.1855 2.74746H22.3009L24.6027 20.9965H29.1963L26.0369 0.938941L18.3893 0.933086ZM44.3711 0.933086L42.2448 16.2323H42.1295L40.0032 0.938941H32.9975L32.6515 20.9965H36.9642L37.0795 2.95231H37.1347L40.0082 20.9965H44.3761L47.2496 2.95231H47.3649L47.4803 20.9965H51.793L51.3918 0.938941L44.3711 0.933086ZM7.93344 15.2959C8.06416 15.773 8.0832 16.2822 7.9886 16.7708C7.87326 17.438 7.47207 18.1111 6.32368 18.1111C5.23045 18.1111 4.59859 17.3736 4.59859 16.2967V14.3536H0V15.8987C0 20.3937 3.04399 21.734 6.26852 21.734C9.36767 21.734 11.9553 20.4581 12.3565 17.1688C12.5872 15.4246 12.4167 14.2892 12.3565 13.8854C11.5541 9.65963 4.99977 8.4481 4.53841 6.10112C4.48102 5.74724 4.48102 5.38393 4.53841 5.03005C4.65375 4.35698 5.05995 3.68391 6.093 3.68391C7.12605 3.68391 7.69774 4.42722 7.69774 5.49828V6.70396H12.0105V5.29929C12.0105 0.93894 8.62047 0.265869 6.20834 0.265869C3.15933 0.265869 0.631867 1.47155 0.170504 4.69645C0.0195809 5.58409 0.040139 6.49983 0.230681 7.37703C0.917711 11.5325 7.07089 12.7441 7.93344 15.29M63.8587 15.29C64.0292 15.7583 63.969 16.367 63.9138 16.7708C63.7985 17.438 63.3973 18.1111 62.2489 18.1111C61.1557 18.1111 60.5238 17.3736 60.5238 16.2967V14.3536H55.9252V15.8987C55.9252 20.3235 58.914 21.6637 62.1336 21.6637C65.2377 21.6637 67.7652 20.4581 68.1664 17.1044C68.3971 15.3603 68.2266 14.2892 68.1664 13.8151C67.4793 9.65963 60.9801 8.38372 60.5238 6.10112C60.4659 5.74729 60.4659 5.38388 60.5238 5.03005C60.6391 4.35698 61.0403 3.68391 62.0784 3.68391C63.0513 3.68391 63.6831 4.42722 63.6831 5.49828V6.70396H67.9357V5.29929C67.9357 0.93894 64.6008 0.265869 62.1887 0.265869C59.1447 0.265869 56.6724 1.40717 56.2111 4.69645C56.0957 5.56852 56.0957 6.37035 56.2712 7.37703C56.9583 11.5325 62.9911 12.6738 63.8587 15.29ZM78.3414 17.9765C79.545 17.9765 79.896 17.04 80.0064 16.5016C80.0665 16.2967 80.0665 15.9631 80.0665 15.7641V0.933086H84.4294V15.3544C84.4294 15.7583 84.4294 16.4957 84.3793 16.7006C84.0884 20.4522 81.561 21.6579 78.3966 21.6579C75.2373 21.6579 72.7098 20.4522 72.4189 16.6947C72.4189 16.4957 72.3638 15.7583 72.3638 15.3544V0.933086H76.7267V15.7583C76.7267 16.0275 76.7267 16.2909 76.7868 16.4957C76.7868 17.0283 77.1379 17.9706 78.3414 17.9706M114.207 17.7716C115.471 17.7716 115.872 16.8352 115.988 16.2909C116.043 16.0919 116.043 15.7583 116.043 15.5534V12.668H114.263V9.71816H120.356V15.0852C120.356 15.489 120.356 15.7583 120.3 16.4313C120.01 20.1186 117.307 21.3887 114.263 21.3887C111.219 21.3887 108.516 20.1186 108.23 16.4255C108.17 15.7583 108.17 15.489 108.17 15.0852V6.63372C108.17 6.30011 108.23 5.62704 108.23 5.28758C108.631 1.53593 111.219 0.330248 114.263 0.330248C117.307 0.330248 119.954 1.53592 120.295 5.29343C120.356 5.89627 120.356 6.63372 120.356 6.63372V7.3068H116.043V6.1655C116.043 6.1655 116.043 5.69728 115.988 5.42805C115.927 4.95982 115.586 3.95314 114.263 3.95314C112.999 3.95314 112.658 4.88959 112.537 5.42805C112.482 5.69143 112.482 6.03089 112.482 6.3645V15.5534C112.482 15.8226 112.482 16.0919 112.537 16.2909C112.537 16.8293 112.999 17.7716 114.207 17.7716Z" fill="#EEEEEE"/>
</svg>
