<svg width="74" height="30" viewBox="0 0 74 30" fill="none" xmlns="http://www.w3.org/2000/svg">
<path d="M0.396851 0.679199V18.3045C0.396851 24.9496 4.35497 29.3204 9.53098 29.3204C12.0581 29.3204 14.2807 28.1832 15.8944 26.2288V28.8584H19.4872V0.679199H15.864V18.0558C15.864 22.5332 13.276 25.5536 9.95724 25.5536C6.57761 25.5536 4.02005 22.6042 4.02005 18.0558V0.679199H0.396851ZM23.0495 0.679199V28.8584H26.49V26.2643C27.3086 27.2353 28.285 28.0057 29.362 28.5304C30.4391 29.0552 31.595 29.3238 32.7621 29.3204C33.977 29.3346 35.1821 29.0658 36.3069 28.5298C37.4317 27.9937 38.4536 27.2012 39.3127 26.1985C40.1718 25.1958 40.8509 24.0032 41.3102 22.6905C41.7695 21.3777 41.9998 19.9712 41.9876 18.5533C41.9876 17.1443 41.7484 15.7493 41.2836 14.4489C40.8189 13.1485 40.1379 11.9686 39.28 10.9772C38.4222 9.98591 37.4044 9.2029 36.2856 8.67347C35.1669 8.14404 33.9693 7.8787 32.7621 7.89279C31.5996 7.89014 30.4484 8.15918 29.3765 8.68404C28.3045 9.20889 27.3334 9.97895 26.5205 10.9488V0.679199H23.0495ZM53.1008 7.89279C47.9552 7.89279 44.058 12.7966 44.058 18.5533C44.058 24.7008 48.1379 29.2137 53.4052 29.2137C56.6326 29.2137 59.2511 27.6502 60.9866 24.914L58.4899 22.7109C57.1807 24.7719 55.4452 25.6603 53.4052 25.6603C50.4519 25.6603 48.077 23.2439 47.5898 19.9036H61.9V18.5533C61.9 12.4768 58.155 7.89279 53.1008 7.89279ZM72.252 8.17707C70.3338 8.17707 68.9028 9.20758 68.0503 10.8422V8.31921H64.6098V28.8584H68.0807V17.1674C68.0807 14.0048 69.7553 11.9438 72.0389 11.9438H73.4699V8.14153H72.252M53.0399 11.4463C55.6279 11.4463 57.7896 13.5428 58.3681 16.6699H47.5898C48.2901 13.5428 50.4519 11.4463 53.0399 11.4463ZM32.5185 11.4463C35.8373 11.4463 38.5471 14.6444 38.5471 18.5533C38.5471 22.5687 35.8373 25.6603 32.5185 25.6603C30.9088 25.6509 29.3677 24.8979 28.2323 23.5661C27.0969 22.2343 26.4595 20.432 26.4596 18.5533C26.4595 16.6745 27.0969 14.8722 28.2323 13.5404C29.3677 12.2086 30.9088 11.4557 32.5185 11.4463Z" fill="#EEEEEE"/>
</svg>
