<svg width="20" height="21" viewBox="0 0 20 21" fill="none" xmlns="http://www.w3.org/2000/svg">
<g clip-path="url(#clip0_13_1387)">
<path d="M0 0.5H20V20.5H0V0.5Z" fill="#012169"/>
<path d="M2.34375 0.5L9.96875 8.04167L17.5625 0.5H20V3.08333L12.5 10.5417L20 17.9583V20.5H17.5L10 13.0417L2.53125 20.5H0V18L7.46875 10.5833L0 3.16667V0.5H2.34375Z" fill="white"/>
<path d="M13.25 12.2083L20 18.8333V20.5L11.5312 12.2083H13.25ZM7.5 13.0417L7.6875 14.5L1.6875 20.5H0L7.5 13.0417ZM20 0.5V0.625L12.2188 8.45833L12.2812 6.625L18.4375 0.5H20ZM0 0.5L7.46875 7.83333H5.59375L0 2.25V0.5Z" fill="#C8102E"/>
<path d="M7.53125 0.5V20.5H12.5312V0.5H7.53125ZM0 7.16667V13.8333H20V7.16667H0Z" fill="white"/>
<path d="M0 8.54167V12.5417H20V8.54167H0ZM8.53125 0.5V20.5H11.5312V0.5H8.53125Z" fill="#C8102E"/>
</g>
<defs>
<clipPath id="clip0_13_1387">
<rect y="0.5" width="20" height="20" rx="10" fill="white"/>
</clipPath>
</defs>
</svg>
