<svg width="87" height="32" viewBox="0 0 87 32" fill="none" xmlns="http://www.w3.org/2000/svg">
<path d="M62.9168 1.88234C60.9198 1.03387 58.8092 0.607748 56.6841 0.623982C49.8066 0.623982 44.953 4.67078 44.9172 10.4692C44.8742 14.7334 48.3702 17.1331 51.0102 18.5628C53.7217 20.0261 54.628 20.9458 54.6208 22.2627C54.6029 24.2568 52.4537 25.1598 50.4585 25.1598C47.7147 25.1598 46.2103 24.7125 43.8999 23.5921L43.0438 23.128L42.073 29.8086C43.7423 30.6238 46.7511 31.322 49.8639 31.3763C57.1748 31.3763 61.9532 27.3588 62.0105 21.1799C62.0678 17.7811 60.1837 15.2017 56.2041 13.0779C53.7898 11.6983 52.2854 10.7744 52.2854 9.37394C52.2854 8.13648 53.5713 6.81542 56.2578 6.81542C58.0444 6.76542 59.8201 7.15426 61.4696 7.95672L62.1144 8.29535L63.0851 1.84053L62.9168 1.88234ZM80.7659 1.17164H75.3929C73.7201 1.17164 72.47 1.70257 71.7357 3.64236L61.4016 30.9583H68.7125L70.1739 26.485L79.0931 26.4934C79.3116 27.5386 79.9528 30.9583 79.9528 30.9583H86.3968L80.7659 1.17164ZM35.0308 0.920804H41.9907L37.6385 30.7242H30.6751L35.0308 0.912443V0.920804ZM17.3393 17.3463L18.0628 21.4851L24.8722 1.17164H32.2476L21.2831 30.9165H13.9256L7.90783 5.72429C7.81077 5.30914 7.57968 4.95402 7.26306 4.73349C5.09872 3.42136 2.80294 2.42851 0.428589 1.77782L0.518139 1.15074H11.7334C13.2522 1.21763 14.4772 1.77782 14.8963 3.67581L17.3393 17.3588V17.3463ZM72.1727 20.3856L74.9487 12.0495C74.9129 12.1331 75.5219 10.3271 75.8729 9.20671L76.3493 11.7778L77.9576 20.3772H72.1727V20.3856Z" fill="#EEEEEE"/>
</svg>
